<?xml version="1.0" encoding="UTF-8" standalone="no"?>
<!DOCTYPE svg PUBLIC "-//W3C//DTD SVG 1.1//EN"
 "http://www.w3.org/Graphics/SVG/1.1/DTD/svg11.dtd">
<!-- Generated by graphviz version 2.26.3 (20100126.1600)
 -->
<!-- Title: controllers_diagram Pages: 1 -->
<svg width="854pt" height="823pt"
 viewBox="0.00 0.00 854.00 823.00" xmlns="http://www.w3.org/2000/svg" xmlns:xlink="http://www.w3.org/1999/xlink">
<g id="graph1" class="graph" transform="scale(1 1) rotate(0) translate(4 819)">
<title>controllers_diagram</title>
<polygon fill="white" stroke="white" points="-4,5 -4,-819 851,-819 851,5 -4,5"/>
<!-- _diagram_info -->
<g id="node1" class="node"><title>_diagram_info</title>
<text text-anchor="start" x="603" y="-95.3" font-family="Times Roman,serif" font-size="13.00">Controllers diagram</text>
<text text-anchor="start" x="603" y="-79.3" font-family="Times Roman,serif" font-size="13.00">Date: Feb 15 2015 &#45; 08:43</text>
<text text-anchor="start" x="603" y="-63.3" font-family="Times Roman,serif" font-size="13.00">Migration version: 20150215005236</text>
<text text-anchor="start" x="603" y="-47.3" font-family="Times Roman,serif" font-size="13.00">Generated by RailRoady 1.3.0</text>
<text text-anchor="start" x="603" y="-31.3" font-family="Times Roman,serif" font-size="13.00">http://railroady.prestonlee.com</text>
</g>
<!-- ApplicationController -->
<g id="node2" class="node"><title>ApplicationController</title>
<polyline fill="none" stroke="black" points="13,-177.5 150,-177.5 "/>
<path fill="none" stroke="black" d="M150,-177.5C156,-177.5 162,-183.5 162,-189.5"/>
<polyline fill="none" stroke="black" points="162,-189.5 162,-263.5 "/>
<path fill="none" stroke="black" d="M162,-263.5C162,-269.5 156,-275.5 150,-275.5"/>
<polyline fill="none" stroke="black" points="150,-275.5 13,-275.5 "/>
<path fill="none" stroke="black" d="M13,-275.5C7,-275.5 1,-269.5 1,-263.5"/>
<polyline fill="none" stroke="black" points="1,-263.5 1,-189.5 "/>
<path fill="none" stroke="black" d="M1,-189.5C1,-183.5 7,-177.5 13,-177.5"/>
<text text-anchor="middle" x="81.5" y="-258.9" font-family="Times Roman,serif" font-size="14.00">ApplicationController</text>
<polyline fill="none" stroke="black" points="1,-250.5 162,-250.5 "/>
<polyline fill="none" stroke="black" points="1,-226.5 162,-226.5 "/>
<polyline fill="none" stroke="black" points="1,-202.5 162,-202.5 "/>
<text text-anchor="start" x="9" y="-185.9" font-family="Times Roman,serif" font-size="14.00">_layout</text>
</g>
<!-- API::QuizzesController -->
<g id="node3" class="node"><title>API::QuizzesController</title>
<polyline fill="none" stroke="black" points="35,-595.5 184,-595.5 "/>
<path fill="none" stroke="black" d="M184,-595.5C190,-595.5 196,-601.5 196,-607.5"/>
<polyline fill="none" stroke="black" points="196,-607.5 196,-801.5 "/>
<path fill="none" stroke="black" d="M196,-801.5C196,-807.5 190,-813.5 184,-813.5"/>
<polyline fill="none" stroke="black" points="184,-813.5 35,-813.5 "/>
<path fill="none" stroke="black" d="M35,-813.5C29,-813.5 23,-807.5 23,-801.5"/>
<polyline fill="none" stroke="black" points="23,-801.5 23,-607.5 "/>
<path fill="none" stroke="black" d="M23,-607.5C23,-601.5 29,-595.5 35,-595.5"/>
<text text-anchor="middle" x="109.5" y="-796.9" font-family="Times Roman,serif" font-size="14.00">API::QuizzesController</text>
<polyline fill="none" stroke="black" points="23,-788.5 196,-788.5 "/>
<text text-anchor="start" x="31" y="-771.9" font-family="Times Roman,serif" font-size="14.00">create</text>
<text text-anchor="start" x="31" y="-754.9" font-family="Times Roman,serif" font-size="14.00">destroy</text>
<text text-anchor="start" x="31" y="-737.9" font-family="Times Roman,serif" font-size="14.00">edit</text>
<text text-anchor="start" x="31" y="-720.9" font-family="Times Roman,serif" font-size="14.00">index</text>
<text text-anchor="start" x="31" y="-703.9" font-family="Times Roman,serif" font-size="14.00">show</text>
<text text-anchor="start" x="31" y="-686.9" font-family="Times Roman,serif" font-size="14.00">update</text>
<polyline fill="none" stroke="black" points="23,-678.5 196,-678.5 "/>
<polyline fill="none" stroke="black" points="23,-654.5 196,-654.5 "/>
<text text-anchor="start" x="31" y="-637.9" font-family="Times Roman,serif" font-size="14.00">_layout</text>
<text text-anchor="start" x="31" y="-620.9" font-family="Times Roman,serif" font-size="14.00">quiz_params</text>
<text text-anchor="start" x="31" y="-603.9" font-family="Times Roman,serif" font-size="14.00">set_quiz</text>
</g>
<!-- API::QuestionsController -->
<g id="node4" class="node"><title>API::QuestionsController</title>
<polyline fill="none" stroke="black" points="453,-177.5 616,-177.5 "/>
<path fill="none" stroke="black" d="M616,-177.5C622,-177.5 628,-183.5 628,-189.5"/>
<polyline fill="none" stroke="black" points="628,-189.5 628,-400.5 "/>
<path fill="none" stroke="black" d="M628,-400.5C628,-406.5 622,-412.5 616,-412.5"/>
<polyline fill="none" stroke="black" points="616,-412.5 453,-412.5 "/>
<path fill="none" stroke="black" d="M453,-412.5C447,-412.5 441,-406.5 441,-400.5"/>
<polyline fill="none" stroke="black" points="441,-400.5 441,-189.5 "/>
<path fill="none" stroke="black" d="M441,-189.5C441,-183.5 447,-177.5 453,-177.5"/>
<text text-anchor="middle" x="534.5" y="-395.9" font-family="Times Roman,serif" font-size="14.00">API::QuestionsController</text>
<polyline fill="none" stroke="black" points="441,-387.5 628,-387.5 "/>
<text text-anchor="start" x="449" y="-370.9" font-family="Times Roman,serif" font-size="14.00">create</text>
<text text-anchor="start" x="449" y="-353.9" font-family="Times Roman,serif" font-size="14.00">destroy</text>
<text text-anchor="start" x="449" y="-336.9" font-family="Times Roman,serif" font-size="14.00">edit</text>
<text text-anchor="start" x="449" y="-319.9" font-family="Times Roman,serif" font-size="14.00">index</text>
<text text-anchor="start" x="449" y="-302.9" font-family="Times Roman,serif" font-size="14.00">new</text>
<text text-anchor="start" x="449" y="-285.9" font-family="Times Roman,serif" font-size="14.00">show</text>
<text text-anchor="start" x="449" y="-268.9" font-family="Times Roman,serif" font-size="14.00">update</text>
<polyline fill="none" stroke="black" points="441,-260.5 628,-260.5 "/>
<polyline fill="none" stroke="black" points="441,-236.5 628,-236.5 "/>
<text text-anchor="start" x="449" y="-219.9" font-family="Times Roman,serif" font-size="14.00">_layout</text>
<text text-anchor="start" x="449" y="-202.9" font-family="Times Roman,serif" font-size="14.00">question_params</text>
<text text-anchor="start" x="449" y="-185.9" font-family="Times Roman,serif" font-size="14.00">set_question</text>
</g>
<!-- API::MembershipsController -->
<g id="node5" class="node"><title>API::MembershipsController</title>
<polyline fill="none" stroke="black" points="211,-177.5 395,-177.5 "/>
<path fill="none" stroke="black" d="M395,-177.5C401,-177.5 407,-183.5 407,-189.5"/>
<polyline fill="none" stroke="black" points="407,-189.5 407,-400.5 "/>
<path fill="none" stroke="black" d="M407,-400.5C407,-406.5 401,-412.5 395,-412.5"/>
<polyline fill="none" stroke="black" points="395,-412.5 211,-412.5 "/>
<path fill="none" stroke="black" d="M211,-412.5C205,-412.5 199,-406.5 199,-400.5"/>
<polyline fill="none" stroke="black" points="199,-400.5 199,-189.5 "/>
<path fill="none" stroke="black" d="M199,-189.5C199,-183.5 205,-177.5 211,-177.5"/>
<text text-anchor="middle" x="303" y="-395.9" font-family="Times Roman,serif" font-size="14.00">API::MembershipsController</text>
<polyline fill="none" stroke="black" points="199,-387.5 407,-387.5 "/>
<text text-anchor="start" x="207" y="-370.9" font-family="Times Roman,serif" font-size="14.00">create</text>
<text text-anchor="start" x="207" y="-353.9" font-family="Times Roman,serif" font-size="14.00">destroy</text>
<text text-anchor="start" x="207" y="-336.9" font-family="Times Roman,serif" font-size="14.00">edit</text>
<text text-anchor="start" x="207" y="-319.9" font-family="Times Roman,serif" font-size="14.00">index</text>
<text text-anchor="start" x="207" y="-302.9" font-family="Times Roman,serif" font-size="14.00">new</text>
<text text-anchor="start" x="207" y="-285.9" font-family="Times Roman,serif" font-size="14.00">show</text>
<text text-anchor="start" x="207" y="-268.9" font-family="Times Roman,serif" font-size="14.00">update</text>
<polyline fill="none" stroke="black" points="199,-260.5 407,-260.5 "/>
<polyline fill="none" stroke="black" points="199,-236.5 407,-236.5 "/>
<text text-anchor="start" x="207" y="-219.9" font-family="Times Roman,serif" font-size="14.00">_layout</text>
<text text-anchor="start" x="207" y="-202.9" font-family="Times Roman,serif" font-size="14.00">membership_params</text>
<text text-anchor="start" x="207" y="-185.9" font-family="Times Roman,serif" font-size="14.00">set_membership</text>
</g>
<!-- API::GroupsController -->
<g id="node6" class="node"><title>API::GroupsController</title>
<polyline fill="none" stroke="black" points="475,-463.5 618,-463.5 "/>
<path fill="none" stroke="black" d="M618,-463.5C624,-463.5 630,-469.5 630,-475.5"/>
<polyline fill="none" stroke="black" points="630,-475.5 630,-686.5 "/>
<path fill="none" stroke="black" d="M630,-686.5C630,-692.5 624,-698.5 618,-698.5"/>
<polyline fill="none" stroke="black" points="618,-698.5 475,-698.5 "/>
<path fill="none" stroke="black" d="M475,-698.5C469,-698.5 463,-692.5 463,-686.5"/>
<polyline fill="none" stroke="black" points="463,-686.5 463,-475.5 "/>
<path fill="none" stroke="black" d="M463,-475.5C463,-469.5 469,-463.5 475,-463.5"/>
<text text-anchor="middle" x="546.5" y="-681.9" font-family="Times Roman,serif" font-size="14.00">API::GroupsController</text>
<polyline fill="none" stroke="black" points="463,-673.5 630,-673.5 "/>
<text text-anchor="start" x="471" y="-656.9" font-family="Times Roman,serif" font-size="14.00">create</text>
<text text-anchor="start" x="471" y="-639.9" font-family="Times Roman,serif" font-size="14.00">destroy</text>
<text text-anchor="start" x="471" y="-622.9" font-family="Times Roman,serif" font-size="14.00">edit</text>
<text text-anchor="start" x="471" y="-605.9" font-family="Times Roman,serif" font-size="14.00">index</text>
<text text-anchor="start" x="471" y="-588.9" font-family="Times Roman,serif" font-size="14.00">new</text>
<text text-anchor="start" x="471" y="-571.9" font-family="Times Roman,serif" font-size="14.00">show</text>
<text text-anchor="start" x="471" y="-554.9" font-family="Times Roman,serif" font-size="14.00">update</text>
<polyline fill="none" stroke="black" points="463,-546.5 630,-546.5 "/>
<polyline fill="none" stroke="black" points="463,-522.5 630,-522.5 "/>
<text text-anchor="start" x="471" y="-505.9" font-family="Times Roman,serif" font-size="14.00">_layout</text>
<text text-anchor="start" x="471" y="-488.9" font-family="Times Roman,serif" font-size="14.00">group_params</text>
<text text-anchor="start" x="471" y="-471.9" font-family="Times Roman,serif" font-size="14.00">set_group</text>
</g>
<!-- API::StudentsAnswersController -->
<g id="node7" class="node"><title>API::StudentsAnswersController</title>
<polyline fill="none" stroke="black" points="321,-1.5 536,-1.5 "/>
<path fill="none" stroke="black" d="M536,-1.5C542,-1.5 548,-7.5 548,-13.5"/>
<polyline fill="none" stroke="black" points="548,-13.5 548,-122.5 "/>
<path fill="none" stroke="black" d="M548,-122.5C548,-128.5 542,-134.5 536,-134.5"/>
<polyline fill="none" stroke="black" points="536,-134.5 321,-134.5 "/>
<path fill="none" stroke="black" d="M321,-134.5C315,-134.5 309,-128.5 309,-122.5"/>
<polyline fill="none" stroke="black" points="309,-122.5 309,-13.5 "/>
<path fill="none" stroke="black" d="M309,-13.5C309,-7.5 315,-1.5 321,-1.5"/>
<text text-anchor="middle" x="428.5" y="-117.9" font-family="Times Roman,serif" font-size="14.00">API::StudentsAnswersController</text>
<polyline fill="none" stroke="black" points="309,-109.5 548,-109.5 "/>
<text text-anchor="start" x="317" y="-92.9" font-family="Times Roman,serif" font-size="14.00">create</text>
<text text-anchor="start" x="317" y="-75.9" font-family="Times Roman,serif" font-size="14.00">index</text>
<text text-anchor="start" x="317" y="-58.9" font-family="Times Roman,serif" font-size="14.00">show</text>
<polyline fill="none" stroke="black" points="309,-50.5 548,-50.5 "/>
<polyline fill="none" stroke="black" points="309,-26.5 548,-26.5 "/>
<text text-anchor="start" x="317" y="-9.9" font-family="Times Roman,serif" font-size="14.00">_layout</text>
</g>
<!-- API::SessionsController -->
<g id="node8" class="node"><title>API::SessionsController</title>
<polyline fill="none" stroke="black" points="673,-155.5 825,-155.5 "/>
<path fill="none" stroke="black" d="M825,-155.5C831,-155.5 837,-161.5 837,-167.5"/>
<polyline fill="none" stroke="black" points="837,-167.5 837,-276.5 "/>
<path fill="none" stroke="black" d="M837,-276.5C837,-282.5 831,-288.5 825,-288.5"/>
<polyline fill="none" stroke="black" points="825,-288.5 673,-288.5 "/>
<path fill="none" stroke="black" d="M673,-288.5C667,-288.5 661,-282.5 661,-276.5"/>
<polyline fill="none" stroke="black" points="661,-276.5 661,-167.5 "/>
<path fill="none" stroke="black" d="M661,-167.5C661,-161.5 667,-155.5 673,-155.5"/>
<text text-anchor="middle" x="749" y="-271.9" font-family="Times Roman,serif" font-size="14.00">API::SessionsController</text>
<polyline fill="none" stroke="black" points="661,-263.5 837,-263.5 "/>
<text text-anchor="start" x="669" y="-246.9" font-family="Times Roman,serif" font-size="14.00">create</text>
<text text-anchor="start" x="669" y="-229.9" font-family="Times Roman,serif" font-size="14.00">destroy</text>
<text text-anchor="start" x="669" y="-212.9" font-family="Times Roman,serif" font-size="14.00">failure</text>
<polyline fill="none" stroke="black" points="661,-204.5 837,-204.5 "/>
<polyline fill="none" stroke="black" points="661,-180.5 837,-180.5 "/>
<text text-anchor="start" x="669" y="-163.9" font-family="Times Roman,serif" font-size="14.00">_layout</text>
</g>
<!-- API::AnswersController -->
<g id="node9" class="node"><title>API::AnswersController</title>
<polyline fill="none" stroke="black" points="255,-463.5 408,-463.5 "/>
<path fill="none" stroke="black" d="M408,-463.5C414,-463.5 420,-469.5 420,-475.5"/>
<polyline fill="none" stroke="black" points="420,-475.5 420,-686.5 "/>
<path fill="none" stroke="black" d="M420,-686.5C420,-692.5 414,-698.5 408,-698.5"/>
<polyline fill="none" stroke="black" points="408,-698.5 255,-698.5 "/>
<path fill="none" stroke="black" d="M255,-698.5C249,-698.5 243,-692.5 243,-686.5"/>
<polyline fill="none" stroke="black" points="243,-686.5 243,-475.5 "/>
<path fill="none" stroke="black" d="M243,-475.5C243,-469.5 249,-463.5 255,-463.5"/>
<text text-anchor="middle" x="331.5" y="-681.9" font-family="Times Roman,serif" font-size="14.00">API::AnswersController</text>
<polyline fill="none" stroke="black" points="243,-673.5 420,-673.5 "/>
<text text-anchor="start" x="251" y="-656.9" font-family="Times Roman,serif" font-size="14.00">create</text>
<text text-anchor="start" x="251" y="-639.9" font-family="Times Roman,serif" font-size="14.00">destroy</text>
<text text-anchor="start" x="251" y="-622.9" font-family="Times Roman,serif" font-size="14.00">edit</text>
<text text-anchor="start" x="251" y="-605.9" font-family="Times Roman,serif" font-size="14.00">index</text>
<text text-anchor="start" x="251" y="-588.9" font-family="Times Roman,serif" font-size="14.00">new</text>
<text text-anchor="start" x="251" y="-571.9" font-family="Times Roman,serif" font-size="14.00">show</text>
<text text-anchor="start" x="251" y="-554.9" font-family="Times Roman,serif" font-size="14.00">update</text>
<polyline fill="none" stroke="black" points="243,-546.5 420,-546.5 "/>
<polyline fill="none" stroke="black" points="243,-522.5 420,-522.5 "/>
<text text-anchor="start" x="251" y="-505.9" font-family="Times Roman,serif" font-size="14.00">_layout</text>
<text text-anchor="start" x="251" y="-488.9" font-family="Times Roman,serif" font-size="14.00">answer_params</text>
<text text-anchor="start" x="251" y="-471.9" font-family="Times Roman,serif" font-size="14.00">set_answer</text>
</g>
<!-- API::UsersController -->
<g id="node10" class="node"><title>API::UsersController</title>
<polyline fill="none" stroke="black" points="13,-309.5 145,-309.5 "/>
<path fill="none" stroke="black" d="M145,-309.5C151,-309.5 157,-315.5 157,-321.5"/>
<polyline fill="none" stroke="black" points="157,-321.5 157,-532.5 "/>
<path fill="none" stroke="black" d="M157,-532.5C157,-538.5 151,-544.5 145,-544.5"/>
<polyline fill="none" stroke="black" points="145,-544.5 13,-544.5 "/>
<path fill="none" stroke="black" d="M13,-544.5C7,-544.5 1,-538.5 1,-532.5"/>
<polyline fill="none" stroke="black" points="1,-532.5 1,-321.5 "/>
<path fill="none" stroke="black" d="M1,-321.5C1,-315.5 7,-309.5 13,-309.5"/>
<text text-anchor="middle" x="79" y="-527.9" font-family="Times Roman,serif" font-size="14.00">API::UsersController</text>
<polyline fill="none" stroke="black" points="1,-519.5 157,-519.5 "/>
<text text-anchor="start" x="9" y="-502.9" font-family="Times Roman,serif" font-size="14.00">create</text>
<text text-anchor="start" x="9" y="-485.9" font-family="Times Roman,serif" font-size="14.00">destroy</text>
<text text-anchor="start" x="9" y="-468.9" font-family="Times Roman,serif" font-size="14.00">edit</text>
<text text-anchor="start" x="9" y="-451.9" font-family="Times Roman,serif" font-size="14.00">index</text>
<text text-anchor="start" x="9" y="-434.9" font-family="Times Roman,serif" font-size="14.00">new</text>
<text text-anchor="start" x="9" y="-417.9" font-family="Times Roman,serif" font-size="14.00">show</text>
<text text-anchor="start" x="9" y="-400.9" font-family="Times Roman,serif" font-size="14.00">update</text>
<polyline fill="none" stroke="black" points="1,-392.5 157,-392.5 "/>
<polyline fill="none" stroke="black" points="1,-368.5 157,-368.5 "/>
<text text-anchor="start" x="9" y="-351.9" font-family="Times Roman,serif" font-size="14.00">_layout</text>
<text text-anchor="start" x="9" y="-334.9" font-family="Times Roman,serif" font-size="14.00">set_user</text>
<text text-anchor="start" x="9" y="-317.9" font-family="Times Roman,serif" font-size="14.00">user_params</text>
</g>
<!-- API::RegistrationsController -->
<g id="node11" class="node"><title>API::RegistrationsController</title>
<polyline fill="none" stroke="black" points="35,-23.5 219,-23.5 "/>
<path fill="none" stroke="black" d="M219,-23.5C225,-23.5 231,-29.5 231,-35.5"/>
<polyline fill="none" stroke="black" points="231,-35.5 231,-127.5 "/>
<path fill="none" stroke="black" d="M231,-127.5C231,-133.5 225,-139.5 219,-139.5"/>
<polyline fill="none" stroke="black" points="219,-139.5 35,-139.5 "/>
<path fill="none" stroke="black" d="M35,-139.5C29,-139.5 23,-133.5 23,-127.5"/>
<polyline fill="none" stroke="black" points="23,-127.5 23,-35.5 "/>
<path fill="none" stroke="black" d="M23,-35.5C23,-29.5 29,-23.5 35,-23.5"/>
<text text-anchor="middle" x="127" y="-122.9" font-family="Times Roman,serif" font-size="14.00">API::RegistrationsController</text>
<polyline fill="none" stroke="black" points="23,-114.5 231,-114.5 "/>
<text text-anchor="start" x="31" y="-97.9" font-family="Times Roman,serif" font-size="14.00">create</text>
<text text-anchor="start" x="31" y="-80.9" font-family="Times Roman,serif" font-size="14.00">sign_up_params</text>
<polyline fill="none" stroke="black" points="23,-72.5 231,-72.5 "/>
<polyline fill="none" stroke="black" points="23,-48.5 231,-48.5 "/>
<text text-anchor="start" x="31" y="-31.9" font-family="Times Roman,serif" font-size="14.00">_layout</text>
</g>
</g>
</svg>
