<?xml version="1.0" encoding="UTF-8" standalone="no"?>
<!DOCTYPE svg PUBLIC "-//W3C//DTD SVG 1.1//EN"
 "http://www.w3.org/Graphics/SVG/1.1/DTD/svg11.dtd">
<!-- Generated by graphviz version 2.26.3 (20100126.1600)
 -->
<!-- Title: models_diagram Pages: 1 -->
<svg width="721pt" height="408pt"
 viewBox="0.00 0.00 721.00 408.00" xmlns="http://www.w3.org/2000/svg" xmlns:xlink="http://www.w3.org/1999/xlink">
<g id="graph1" class="graph" transform="scale(1 1) rotate(0) translate(4 404)">
<title>models_diagram</title>
<polygon fill="white" stroke="white" points="-4,5 -4,-404 718,-404 718,5 -4,5"/>
<!-- _diagram_info -->
<g id="node1" class="node"><title>_diagram_info</title>
<text text-anchor="start" x="8" y="-384.3" font-family="Times Roman,serif" font-size="13.00">Models diagram</text>
<text text-anchor="start" x="8" y="-368.3" font-family="Times Roman,serif" font-size="13.00">Date: Feb 15 2015 &#45; 08:43</text>
<text text-anchor="start" x="8" y="-352.3" font-family="Times Roman,serif" font-size="13.00">Migration version: 20150215005236</text>
<text text-anchor="start" x="8" y="-336.3" font-family="Times Roman,serif" font-size="13.00">Generated by RailRoady 1.3.0</text>
<text text-anchor="start" x="8" y="-320.3" font-family="Times Roman,serif" font-size="13.00">http://railroady.prestonlee.com</text>
</g>
<!-- Membership -->
<g id="node2" class="node"><title>Membership</title>
<ellipse fill="none" stroke="black" cx="318" cy="-182" rx="68.9883" ry="18"/>
<text text-anchor="middle" x="318" y="-177.9" font-family="Times Roman,serif" font-size="14.00">Membership</text>
</g>
<!-- User -->
<g id="node3" class="node"><title>User</title>
<ellipse fill="none" stroke="black" cx="368" cy="-92" rx="32.8565" ry="18"/>
<text text-anchor="middle" x="368" y="-87.9" font-family="Times Roman,serif" font-size="14.00">User</text>
</g>
<!-- Publication -->
<g id="node4" class="node"><title>Publication</title>
<ellipse fill="none" stroke="black" cx="649" cy="-92" rx="63.9292" ry="18"/>
<text text-anchor="middle" x="649" y="-87.9" font-family="Times Roman,serif" font-size="14.00">Publication</text>
</g>
<!-- StudentsQuiz -->
<g id="node6" class="node"><title>StudentsQuiz</title>
<ellipse fill="none" stroke="black" cx="557" cy="-18" rx="77.1319" ry="18"/>
<text text-anchor="middle" x="557" y="-13.9" font-family="Times Roman,serif" font-size="14.00">StudentsQuiz</text>
</g>
<!-- Publication&#45;&gt;StudentsQuiz -->
<g id="edge2" class="edge"><title>Publication&#45;&gt;StudentsQuiz</title>
<path fill="none" stroke="#c8d604" d="M621.178,-69.6215C610.169,-60.7666 597.505,-50.5802 586.351,-41.6083"/>
<ellipse fill="none" stroke="#c8d604" cx="624.545" cy="-72.3299" rx="4.00002" ry="4.00002"/>
<polygon fill="#c8d604" stroke="#c8d604" points="586.333,-41.594 581.361,-31.8199 582.437,-38.4602 578.541,-35.3263 578.541,-35.3263 578.541,-35.3263 582.437,-38.4602 575.72,-38.8328 586.333,-41.594 586.333,-41.594"/>
</g>
<!-- Instructor -->
<g id="node5" class="node"><title>Instructor</title>
<ellipse fill="none" stroke="black" cx="526" cy="-356" rx="59.065" ry="18"/>
<text text-anchor="middle" x="526" y="-351.9" font-family="Times Roman,serif" font-size="14.00">Instructor</text>
</g>
<!-- Group -->
<g id="node8" class="node"><title>Group</title>
<ellipse fill="none" stroke="black" cx="420" cy="-256" rx="40.9981" ry="18"/>
<text text-anchor="middle" x="420" y="-251.9" font-family="Times Roman,serif" font-size="14.00">Group</text>
</g>
<!-- Instructor&#45;&gt;Group -->
<g id="edge4" class="edge"><title>Instructor&#45;&gt;Group</title>
<path fill="none" stroke="#f2ee4f" d="M501.466,-332.855C484.505,-316.854 462.014,-295.636 444.961,-279.548"/>
<ellipse fill="none" stroke="#f2ee4f" cx="504.627" cy="-335.836" rx="4.00002" ry="4.00002"/>
<polygon fill="#f2ee4f" stroke="#f2ee4f" points="444.822,-279.417 440.636,-269.282 441.185,-275.986 437.548,-272.555 437.548,-272.555 437.548,-272.555 441.185,-275.986 434.46,-275.828 444.822,-279.417 444.822,-279.417"/>
</g>
<!-- Quiz -->
<g id="node10" class="node"><title>Quiz</title>
<ellipse fill="none" stroke="black" cx="536" cy="-182" rx="34.0492" ry="18"/>
<text text-anchor="middle" x="536" y="-177.9" font-family="Times Roman,serif" font-size="14.00">Quiz</text>
</g>
<!-- Instructor&#45;&gt;Quiz -->
<g id="edge6" class="edge"><title>Instructor&#45;&gt;Quiz</title>
<path fill="none" stroke="#94e5f5" d="M527.514,-329.661C529.36,-297.527 532.471,-243.412 534.369,-210.379"/>
<ellipse fill="none" stroke="#94e5f5" cx="527.281" cy="-333.714" rx="4" ry="4"/>
<polygon fill="#94e5f5" stroke="#94e5f5" points="534.389,-210.031 539.455,-200.305 534.676,-205.039 534.963,-200.047 534.963,-200.047 534.963,-200.047 534.676,-205.039 530.47,-199.789 534.389,-210.031 534.389,-210.031"/>
</g>
<!-- Question -->
<g id="node7" class="node"><title>Question</title>
<ellipse fill="none" stroke="black" cx="474" cy="-92" rx="54.8957" ry="18"/>
<text text-anchor="middle" x="474" y="-87.9" font-family="Times Roman,serif" font-size="14.00">Question</text>
</g>
<!-- Answer -->
<g id="node11" class="node"><title>Answer</title>
<ellipse fill="none" stroke="black" cx="259" cy="-18" rx="47.9469" ry="18"/>
<text text-anchor="middle" x="259" y="-13.9" font-family="Times Roman,serif" font-size="14.00">Answer</text>
</g>
<!-- Question&#45;&gt;Answer -->
<g id="edge8" class="edge"><title>Question&#45;&gt;Answer</title>
<path fill="none" stroke="#2f87f4" d="M428.3,-76.2707C391.742,-63.6881 340.745,-46.1355 304.295,-33.5898"/>
<ellipse fill="none" stroke="#2f87f4" cx="432.275" cy="-77.6388" rx="4.00001" ry="4.00001"/>
<polygon fill="#2f87f4" stroke="#2f87f4" points="303.879,-33.4469 295.888,-25.9374 299.152,-31.8197 294.424,-30.1924 294.424,-30.1924 294.424,-30.1924 299.152,-31.8197 292.959,-34.4474 303.879,-33.4469 303.879,-33.4469"/>
</g>
<!-- Group&#45;&gt;Membership -->
<g id="edge10" class="edge"><title>Group&#45;&gt;Membership</title>
<path fill="none" stroke="#0158bf" d="M391.821,-235.556C378.684,-226.026 363.002,-214.648 349.477,-204.836"/>
<ellipse fill="none" stroke="#0158bf" cx="395.131" cy="-237.958" rx="4.00002" ry="4.00002"/>
<polygon fill="#0158bf" stroke="#0158bf" points="349.471,-204.832 344.019,-195.317 345.424,-201.896 341.377,-198.96 341.377,-198.96 341.377,-198.96 345.424,-201.896 338.734,-202.602 349.471,-204.832 349.471,-204.832"/>
</g>
<!-- Group&#45;&gt;User -->
<g id="edge12" class="edge"><title>Group&#45;&gt;User</title>
<path fill="none" stroke="#cb1a7e" d="M413.604,-228.067C409.181,-209.704 402.873,-185.235 396,-164 391.129,-148.951 384.803,-132.487 379.397,-119.105"/>
<polygon fill="#cb1a7e" stroke="#cb1a7e" points="413.614,-228.11 411.54,-238.878 414.766,-232.975 415.919,-237.841 415.919,-237.841 415.919,-237.841 414.766,-232.975 420.298,-236.803 413.614,-228.11 413.614,-228.11"/>
<polygon fill="#cb1a7e" stroke="#cb1a7e" points="379.273,-118.801 379.646,-107.842 377.377,-114.175 375.482,-109.548 375.482,-109.548 375.482,-109.548 377.377,-114.175 371.318,-111.254 379.273,-118.801 379.273,-118.801"/>
<text text-anchor="middle" x="436.5" y="-177.9" font-family="Times Roman,serif" font-size="14.00">students</text>
</g>
<!-- Group&#45;&gt;Publication -->
<g id="edge16" class="edge"><title>Group&#45;&gt;Publication</title>
<path fill="none" stroke="#8b6aae" d="M466.679,-247.966C500.639,-240.248 546.222,-225.818 579,-200 606.152,-178.613 626.049,-143.64 637.545,-119.308"/>
<ellipse fill="none" stroke="#8b6aae" cx="462.656" cy="-248.844" rx="4.00001" ry="4.00001"/>
<polygon fill="#8b6aae" stroke="#8b6aae" points="637.675,-119.022 645.911,-111.783 639.745,-114.471 641.815,-109.92 641.815,-109.92 641.815,-109.92 639.745,-114.471 637.719,-108.057 637.675,-119.022 637.675,-119.022"/>
</g>
<!-- Group&#45;&gt;Quiz -->
<g id="edge14" class="edge"><title>Group&#45;&gt;Quiz</title>
<path fill="none" stroke="#e08897" d="M450.079,-234.645C458.1,-229.109 466.814,-223.234 475,-218 484.264,-212.076 494.499,-205.899 503.897,-200.367"/>
<polygon fill="#e08897" stroke="#e08897" points="449.912,-234.761 439.134,-236.781 445.808,-237.618 441.705,-240.474 441.705,-240.474 441.705,-240.474 445.808,-237.618 444.275,-244.167 449.912,-234.761 449.912,-234.761"/>
<polygon fill="#e08897" stroke="#e08897" points="503.955,-200.333 514.86,-199.177 508.273,-197.812 512.591,-195.291 512.591,-195.291 512.591,-195.291 508.273,-197.812 510.322,-191.405 503.955,-200.333 503.955,-200.333"/>
</g>
<!-- Student -->
<g id="node9" class="node"><title>Student</title>
<ellipse fill="none" stroke="black" cx="318" cy="-356" rx="50.0315" ry="18"/>
<text text-anchor="middle" x="318" y="-351.9" font-family="Times Roman,serif" font-size="14.00">Student</text>
</g>
<!-- Student&#45;&gt;Membership -->
<g id="edge18" class="edge"><title>Student&#45;&gt;Membership</title>
<path fill="none" stroke="#10629f" d="M318,-329.661C318,-297.527 318,-243.412 318,-210.379"/>
<ellipse fill="none" stroke="#10629f" cx="318" cy="-333.708" rx="4" ry="4"/>
<polygon fill="#10629f" stroke="#10629f" points="318,-210.047 322.5,-200.047 318,-205.047 318,-200.047 318,-200.047 318,-200.047 318,-205.047 313.5,-200.047 318,-210.047 318,-210.047"/>
</g>
<!-- Student&#45;&gt;StudentsQuiz -->
<g id="edge24" class="edge"><title>Student&#45;&gt;StudentsQuiz</title>
<path fill="none" stroke="#f8bd1e" d="M289.711,-334.454C261.079,-311.535 221,-275.9 221,-256 221,-256 221,-256 221,-92 221,-78.6097 385.899,-47.6635 484.657,-30.3306"/>
<ellipse fill="none" stroke="#f8bd1e" cx="292.853" cy="-336.941" rx="4.00002" ry="4.00002"/>
<polygon fill="#f8bd1e" stroke="#f8bd1e" points="484.738,-30.3165 495.363,-33.027 489.663,-29.4554 494.588,-28.5942 494.588,-28.5942 494.588,-28.5942 489.663,-29.4554 493.813,-24.1614 484.738,-30.3165 484.738,-30.3165"/>
</g>
<!-- Student&#45;&gt;Group -->
<g id="edge20" class="edge"><title>Student&#45;&gt;Group</title>
<path fill="none" stroke="#83ee4c" d="M342.858,-331.63C358.879,-315.923 379.617,-295.592 395.555,-279.965"/>
<polygon fill="#83ee4c" stroke="#83ee4c" points="342.444,-332.036 332.153,-335.823 338.873,-335.536 335.303,-339.036 335.303,-339.036 335.303,-339.036 338.873,-335.536 338.453,-342.25 342.444,-332.036 342.444,-332.036"/>
<polygon fill="#83ee4c" stroke="#83ee4c" points="395.812,-279.714 406.103,-275.926 399.382,-276.213 402.953,-272.713 402.953,-272.713 402.953,-272.713 399.382,-276.213 399.802,-269.5 395.812,-279.714 395.812,-279.714"/>
</g>
<!-- Student&#45;&gt;Quiz -->
<g id="edge26" class="edge"><title>Student&#45;&gt;Quiz</title>
<path fill="none" stroke="#d1bf21" d="M361.65,-338.834C393.941,-324.7 437.732,-302.394 470,-274 491.403,-255.167 509.738,-228.145 521.612,-208.257"/>
<polygon fill="#d1bf21" stroke="#d1bf21" points="361.637,-338.839 350.673,-338.642 357.041,-340.809 352.446,-342.778 352.446,-342.778 352.446,-342.778 357.041,-340.809 354.218,-346.914 361.637,-338.839 361.637,-338.839"/>
<polygon fill="#d1bf21" stroke="#d1bf21" points="521.731,-208.053 530.645,-201.666 524.242,-203.729 526.754,-199.406 526.754,-199.406 526.754,-199.406 524.242,-203.729 522.863,-197.146 521.731,-208.053 521.731,-208.053"/>
</g>
<!-- Student&#45;&gt;Answer -->
<g id="edge22" class="edge"><title>Student&#45;&gt;Answer</title>
<path fill="none" stroke="#5dd428" d="M290.803,-332.98C281.181,-325.595 270.005,-317.828 259,-312 237.387,-300.555 226.164,-309.194 207,-294 191.347,-281.59 183,-275.975 183,-256 183,-256 183,-256 183,-92 183,-68.6838 201.589,-50.3303 220.381,-37.7337"/>
<polygon fill="#5dd428" stroke="#5dd428" points="290.971,-333.112 296.025,-342.844 294.893,-336.213 298.816,-339.313 298.816,-339.313 298.816,-339.313 294.893,-336.213 301.606,-335.783 290.971,-333.112 290.971,-333.112"/>
<polygon fill="#5dd428" stroke="#5dd428" points="220.49,-37.6654 231.353,-36.1669 224.726,-35.0098 228.963,-32.3541 228.963,-32.3541 228.963,-32.3541 224.726,-35.0098 226.573,-28.5413 220.49,-37.6654 220.49,-37.6654"/>
</g>
<!-- Quiz&#45;&gt;User -->
<g id="edge34" class="edge"><title>Quiz&#45;&gt;User</title>
<path fill="none" stroke="#7d55e2" d="M499.18,-167.497C480.957,-160.027 461.147,-151.382 453,-146 443.294,-139.588 443.407,-134.842 434,-128 424.122,-120.815 412.646,-114.072 402.06,-108.408"/>
<polygon fill="#7d55e2" stroke="#7d55e2" points="499.228,-167.516 506.805,-175.443 503.861,-169.394 508.495,-171.273 508.495,-171.273 508.495,-171.273 503.861,-169.394 510.186,-167.102 499.228,-167.516 499.228,-167.516"/>
<polygon fill="#7d55e2" stroke="#7d55e2" points="401.922,-108.337 395.125,-99.732 397.486,-106.031 393.049,-103.725 393.049,-103.725 393.049,-103.725 397.486,-106.031 390.974,-107.718 401.922,-108.337 401.922,-108.337"/>
<text text-anchor="middle" x="483.5" y="-132.9" font-family="Times Roman,serif" font-size="14.00">students</text>
</g>
<!-- Quiz&#45;&gt;Publication -->
<g id="edge28" class="edge"><title>Quiz&#45;&gt;Publication</title>
<path fill="none" stroke="#d90655" d="M561.333,-161.823C578.539,-148.119 601.358,-129.945 619.401,-115.574"/>
<ellipse fill="none" stroke="#d90655" cx="558.043" cy="-164.444" rx="4.00002" ry="4.00002"/>
<polygon fill="#d90655" stroke="#d90655" points="619.496,-115.499 630.122,-112.789 623.407,-112.384 627.318,-109.269 627.318,-109.269 627.318,-109.269 623.407,-112.384 624.514,-105.749 619.496,-115.499 619.496,-115.499"/>
</g>
<!-- Quiz&#45;&gt;StudentsQuiz -->
<g id="edge32" class="edge"><title>Quiz&#45;&gt;StudentsQuiz</title>
<path fill="none" stroke="#e1354b" d="M539.347,-155.862C543.177,-125.954 549.427,-77.1447 553.371,-46.3425"/>
<ellipse fill="none" stroke="#e1354b" cx="538.836" cy="-159.855" rx="4.00001" ry="4.00001"/>
<polygon fill="#e1354b" stroke="#e1354b" points="553.392,-46.1779 559.126,-36.8305 554.027,-41.2184 554.662,-36.2589 554.662,-36.2589 554.662,-36.2589 554.027,-41.2184 550.198,-35.6873 553.392,-46.1779 553.392,-46.1779"/>
</g>
<!-- Quiz&#45;&gt;Question -->
<g id="edge30" class="edge"><title>Quiz&#45;&gt;Question</title>
<path fill="none" stroke="#545202" d="M530.575,-156.135C527.807,-146.733 523.768,-136.37 518,-128 514.78,-123.327 510.786,-118.937 506.529,-114.939"/>
<ellipse fill="none" stroke="#545202" cx="531.662" cy="-160.211" rx="4.00001" ry="4.00001"/>
<polygon fill="#545202" stroke="#545202" points="506.269,-114.715 501.63,-104.779 502.481,-111.451 498.693,-108.188 498.693,-108.188 498.693,-108.188 502.481,-111.451 495.756,-111.598 506.269,-114.715 506.269,-114.715"/>
</g>
<!-- Answer&#45;&gt;Answer -->
<g id="edge36" class="edge"><title>Answer&#45;&gt;Answer</title>
<path fill="none" stroke="#93c23e" d="M312.149,-24.0826C319.83,-23.1125 325,-21.085 325,-18 325,-14.915 319.83,-12.8875 312.149,-11.9174"/>
<ellipse fill="none" stroke="#93c23e" cx="307.718" cy="-24.4075" rx="4" ry="4"/>
<ellipse fill="#93c23e" stroke="#93c23e" cx="307.718" cy="-11.5925" rx="4" ry="4"/>
<text text-anchor="middle" x="371" y="-13.9" font-family="Times Roman,serif" font-size="14.00">right_answer</text>
</g>
</g>
</svg>
