<?xml version="1.0" encoding="UTF-8" standalone="no"?>
<!DOCTYPE svg PUBLIC "-//W3C//DTD SVG 1.1//EN"
 "http://www.w3.org/Graphics/SVG/1.1/DTD/svg11.dtd">
<!-- Generated by graphviz version 2.26.3 (20100126.1600)
 -->
<!-- Title: models_diagram Pages: 1 -->
<svg width="998pt" height="1708pt"
 viewBox="0.00 0.00 998.00 1708.00" xmlns="http://www.w3.org/2000/svg" xmlns:xlink="http://www.w3.org/1999/xlink">
<g id="graph1" class="graph" transform="scale(1 1) rotate(0) translate(4 1704)">
<title>models_diagram</title>
<polygon fill="white" stroke="white" points="-4,5 -4,-1704 995,-1704 995,5 -4,5"/>
<!-- _diagram_info -->
<g id="node1" class="node"><title>_diagram_info</title>
<text text-anchor="start" x="8" y="-1490.3" font-family="Times Roman,serif" font-size="13.00">Models diagram</text>
<text text-anchor="start" x="8" y="-1474.3" font-family="Times Roman,serif" font-size="13.00">Date: Feb 15 2015 &#45; 08:43</text>
<text text-anchor="start" x="8" y="-1458.3" font-family="Times Roman,serif" font-size="13.00">Migration version: 20150215005236</text>
<text text-anchor="start" x="8" y="-1442.3" font-family="Times Roman,serif" font-size="13.00">Generated by RailRoady 1.3.0</text>
<text text-anchor="start" x="8" y="-1426.3" font-family="Times Roman,serif" font-size="13.00">http://railroady.prestonlee.com</text>
</g>
<!-- Membership -->
<g id="node2" class="node"><title>Membership</title>
<polyline fill="none" stroke="black" points="324.5,-773.5 465.5,-773.5 "/>
<path fill="none" stroke="black" d="M465.5,-773.5C471.5,-773.5 477.5,-779.5 477.5,-785.5"/>
<polyline fill="none" stroke="black" points="477.5,-785.5 477.5,-896.5 "/>
<path fill="none" stroke="black" d="M477.5,-896.5C477.5,-902.5 471.5,-908.5 465.5,-908.5"/>
<polyline fill="none" stroke="black" points="465.5,-908.5 324.5,-908.5 "/>
<path fill="none" stroke="black" d="M324.5,-908.5C318.5,-908.5 312.5,-902.5 312.5,-896.5"/>
<polyline fill="none" stroke="black" points="312.5,-896.5 312.5,-785.5 "/>
<path fill="none" stroke="black" d="M312.5,-785.5C312.5,-779.5 318.5,-773.5 324.5,-773.5"/>
<text text-anchor="middle" x="395" y="-891.9" font-family="Times Roman,serif" font-size="14.00">Membership</text>
<polyline fill="none" stroke="black" points="312.5,-883.5 477.5,-883.5 "/>
<text text-anchor="start" x="320.5" y="-866.9" font-family="Times Roman,serif" font-size="14.00">id :integer</text>
<text text-anchor="start" x="320.5" y="-849.9" font-family="Times Roman,serif" font-size="14.00">status :boolean</text>
<text text-anchor="start" x="320.5" y="-832.9" font-family="Times Roman,serif" font-size="14.00">student_id :integer</text>
<text text-anchor="start" x="320.5" y="-815.9" font-family="Times Roman,serif" font-size="14.00">group_id :integer</text>
<text text-anchor="start" x="320.5" y="-798.9" font-family="Times Roman,serif" font-size="14.00">created_at :datetime</text>
<text text-anchor="start" x="320.5" y="-781.9" font-family="Times Roman,serif" font-size="14.00">updated_at :datetime</text>
</g>
<!-- User -->
<g id="node3" class="node"><title>User</title>
<polyline fill="none" stroke="black" points="324,-192.5 554,-192.5 "/>
<path fill="none" stroke="black" d="M554,-192.5C560,-192.5 566,-198.5 566,-204.5"/>
<polyline fill="none" stroke="black" points="566,-204.5 566,-655.5 "/>
<path fill="none" stroke="black" d="M566,-655.5C566,-661.5 560,-667.5 554,-667.5"/>
<polyline fill="none" stroke="black" points="554,-667.5 324,-667.5 "/>
<path fill="none" stroke="black" d="M324,-667.5C318,-667.5 312,-661.5 312,-655.5"/>
<polyline fill="none" stroke="black" points="312,-655.5 312,-204.5 "/>
<path fill="none" stroke="black" d="M312,-204.5C312,-198.5 318,-192.5 324,-192.5"/>
<text text-anchor="middle" x="439" y="-650.9" font-family="Times Roman,serif" font-size="14.00">User</text>
<polyline fill="none" stroke="black" points="312,-642.5 566,-642.5 "/>
<text text-anchor="start" x="320" y="-625.9" font-family="Times Roman,serif" font-size="14.00">id :integer</text>
<text text-anchor="start" x="320" y="-608.9" font-family="Times Roman,serif" font-size="14.00">username :string</text>
<text text-anchor="start" x="320" y="-591.9" font-family="Times Roman,serif" font-size="14.00">first_name :string</text>
<text text-anchor="start" x="320" y="-574.9" font-family="Times Roman,serif" font-size="14.00">last_name :string</text>
<text text-anchor="start" x="320" y="-557.9" font-family="Times Roman,serif" font-size="14.00">type :string</text>
<text text-anchor="start" x="320" y="-540.9" font-family="Times Roman,serif" font-size="14.00">faculty :string</text>
<text text-anchor="start" x="320" y="-523.9" font-family="Times Roman,serif" font-size="14.00">university :string</text>
<text text-anchor="start" x="320" y="-506.9" font-family="Times Roman,serif" font-size="14.00">department :string</text>
<text text-anchor="start" x="320" y="-489.9" font-family="Times Roman,serif" font-size="14.00">year :string</text>
<text text-anchor="start" x="320" y="-472.9" font-family="Times Roman,serif" font-size="14.00">email :string</text>
<text text-anchor="start" x="320" y="-455.9" font-family="Times Roman,serif" font-size="14.00">encrypted_password :string</text>
<text text-anchor="start" x="320" y="-438.9" font-family="Times Roman,serif" font-size="14.00">reset_password_token :string</text>
<text text-anchor="start" x="320" y="-421.9" font-family="Times Roman,serif" font-size="14.00">reset_password_sent_at :datetime</text>
<text text-anchor="start" x="320" y="-404.9" font-family="Times Roman,serif" font-size="14.00">remember_created_at :datetime</text>
<text text-anchor="start" x="320" y="-387.9" font-family="Times Roman,serif" font-size="14.00">sign_in_count :integer</text>
<text text-anchor="start" x="320" y="-370.9" font-family="Times Roman,serif" font-size="14.00">current_sign_in_at :datetime</text>
<text text-anchor="start" x="320" y="-353.9" font-family="Times Roman,serif" font-size="14.00">last_sign_in_at :datetime</text>
<text text-anchor="start" x="320" y="-336.9" font-family="Times Roman,serif" font-size="14.00">current_sign_in_ip :string</text>
<text text-anchor="start" x="320" y="-319.9" font-family="Times Roman,serif" font-size="14.00">last_sign_in_ip :string</text>
<text text-anchor="start" x="320" y="-302.9" font-family="Times Roman,serif" font-size="14.00">confirmation_token :string</text>
<text text-anchor="start" x="320" y="-285.9" font-family="Times Roman,serif" font-size="14.00">confirmed_at :datetime</text>
<text text-anchor="start" x="320" y="-268.9" font-family="Times Roman,serif" font-size="14.00">confirmation_sent_at :datetime</text>
<text text-anchor="start" x="320" y="-251.9" font-family="Times Roman,serif" font-size="14.00">unconfirmed_email :string</text>
<text text-anchor="start" x="320" y="-234.9" font-family="Times Roman,serif" font-size="14.00">authentication_token :string</text>
<text text-anchor="start" x="320" y="-217.9" font-family="Times Roman,serif" font-size="14.00">created_at :datetime</text>
<text text-anchor="start" x="320" y="-200.9" font-family="Times Roman,serif" font-size="14.00">updated_at :datetime</text>
</g>
<!-- Publication -->
<g id="node4" class="node"><title>Publication</title>
<polyline fill="none" stroke="black" points="837.5,-371 978.5,-371 "/>
<path fill="none" stroke="black" d="M978.5,-371C984.5,-371 990.5,-377 990.5,-383"/>
<polyline fill="none" stroke="black" points="990.5,-383 990.5,-477 "/>
<path fill="none" stroke="black" d="M990.5,-477C990.5,-483 984.5,-489 978.5,-489"/>
<polyline fill="none" stroke="black" points="978.5,-489 837.5,-489 "/>
<path fill="none" stroke="black" d="M837.5,-489C831.5,-489 825.5,-483 825.5,-477"/>
<polyline fill="none" stroke="black" points="825.5,-477 825.5,-383 "/>
<path fill="none" stroke="black" d="M825.5,-383C825.5,-377 831.5,-371 837.5,-371"/>
<text text-anchor="middle" x="908" y="-472.4" font-family="Times Roman,serif" font-size="14.00">Publication</text>
<polyline fill="none" stroke="black" points="825.5,-464 990.5,-464 "/>
<text text-anchor="start" x="833.5" y="-447.4" font-family="Times Roman,serif" font-size="14.00">id :integer</text>
<text text-anchor="start" x="833.5" y="-430.4" font-family="Times Roman,serif" font-size="14.00">quiz_id :integer</text>
<text text-anchor="start" x="833.5" y="-413.4" font-family="Times Roman,serif" font-size="14.00">group_id :integer</text>
<text text-anchor="start" x="833.5" y="-396.4" font-family="Times Roman,serif" font-size="14.00">created_at :datetime</text>
<text text-anchor="start" x="833.5" y="-379.4" font-family="Times Roman,serif" font-size="14.00">updated_at :datetime</text>
</g>
<!-- StudentsQuiz -->
<g id="node6" class="node"><title>StudentsQuiz</title>
<polyline fill="none" stroke="black" points="725,-1 871,-1 "/>
<path fill="none" stroke="black" d="M871,-1C877,-1 883,-7 883,-13"/>
<polyline fill="none" stroke="black" points="883,-13 883,-141 "/>
<path fill="none" stroke="black" d="M883,-141C883,-147 877,-153 871,-153"/>
<polyline fill="none" stroke="black" points="871,-153 725,-153 "/>
<path fill="none" stroke="black" d="M725,-153C719,-153 713,-147 713,-141"/>
<polyline fill="none" stroke="black" points="713,-141 713,-13 "/>
<path fill="none" stroke="black" d="M713,-13C713,-7 719,-1 725,-1"/>
<text text-anchor="middle" x="798" y="-136.4" font-family="Times Roman,serif" font-size="14.00">StudentsQuiz</text>
<polyline fill="none" stroke="black" points="713,-128 883,-128 "/>
<text text-anchor="start" x="721" y="-111.4" font-family="Times Roman,serif" font-size="14.00">id :integer</text>
<text text-anchor="start" x="721" y="-94.4" font-family="Times Roman,serif" font-size="14.00">student_id :integer</text>
<text text-anchor="start" x="721" y="-77.4" font-family="Times Roman,serif" font-size="14.00">quiz_id :integer</text>
<text text-anchor="start" x="721" y="-60.4" font-family="Times Roman,serif" font-size="14.00">marks :integer</text>
<text text-anchor="start" x="721" y="-43.4" font-family="Times Roman,serif" font-size="14.00">created_at :datetime</text>
<text text-anchor="start" x="721" y="-26.4" font-family="Times Roman,serif" font-size="14.00">updated_at :datetime</text>
<text text-anchor="start" x="721" y="-9.4" font-family="Times Roman,serif" font-size="14.00">publication_id :integer</text>
</g>
<!-- Publication&#45;&gt;StudentsQuiz -->
<g id="edge2" class="edge"><title>Publication&#45;&gt;StudentsQuiz</title>
<path fill="none" stroke="#a31863" d="M887.133,-363.034C869.446,-306.277 843.972,-224.53 824.783,-162.95"/>
<ellipse fill="none" stroke="#a31863" cx="888.398" cy="-367.097" rx="4.00001" ry="4.00001"/>
<polygon fill="#a31863" stroke="#a31863" points="824.735,-162.794 826.056,-151.908 823.247,-158.02 821.76,-153.247 821.76,-153.247 821.76,-153.247 823.247,-158.02 817.463,-154.586 824.735,-162.794 824.735,-162.794"/>
</g>
<!-- Instructor -->
<g id="node5" class="node"><title>Instructor</title>
<polyline fill="none" stroke="black" points="555,-1224.5 785,-1224.5 "/>
<path fill="none" stroke="black" d="M785,-1224.5C791,-1224.5 797,-1230.5 797,-1236.5"/>
<polyline fill="none" stroke="black" points="797,-1236.5 797,-1687.5 "/>
<path fill="none" stroke="black" d="M797,-1687.5C797,-1693.5 791,-1699.5 785,-1699.5"/>
<polyline fill="none" stroke="black" points="785,-1699.5 555,-1699.5 "/>
<path fill="none" stroke="black" d="M555,-1699.5C549,-1699.5 543,-1693.5 543,-1687.5"/>
<polyline fill="none" stroke="black" points="543,-1687.5 543,-1236.5 "/>
<path fill="none" stroke="black" d="M543,-1236.5C543,-1230.5 549,-1224.5 555,-1224.5"/>
<text text-anchor="middle" x="670" y="-1682.9" font-family="Times Roman,serif" font-size="14.00">Instructor</text>
<polyline fill="none" stroke="black" points="543,-1674.5 797,-1674.5 "/>
<text text-anchor="start" x="551" y="-1657.9" font-family="Times Roman,serif" font-size="14.00">id :integer</text>
<text text-anchor="start" x="551" y="-1640.9" font-family="Times Roman,serif" font-size="14.00">username :string</text>
<text text-anchor="start" x="551" y="-1623.9" font-family="Times Roman,serif" font-size="14.00">first_name :string</text>
<text text-anchor="start" x="551" y="-1606.9" font-family="Times Roman,serif" font-size="14.00">last_name :string</text>
<text text-anchor="start" x="551" y="-1589.9" font-family="Times Roman,serif" font-size="14.00">type :string</text>
<text text-anchor="start" x="551" y="-1572.9" font-family="Times Roman,serif" font-size="14.00">faculty :string</text>
<text text-anchor="start" x="551" y="-1555.9" font-family="Times Roman,serif" font-size="14.00">university :string</text>
<text text-anchor="start" x="551" y="-1538.9" font-family="Times Roman,serif" font-size="14.00">department :string</text>
<text text-anchor="start" x="551" y="-1521.9" font-family="Times Roman,serif" font-size="14.00">year :string</text>
<text text-anchor="start" x="551" y="-1504.9" font-family="Times Roman,serif" font-size="14.00">email :string</text>
<text text-anchor="start" x="551" y="-1487.9" font-family="Times Roman,serif" font-size="14.00">encrypted_password :string</text>
<text text-anchor="start" x="551" y="-1470.9" font-family="Times Roman,serif" font-size="14.00">reset_password_token :string</text>
<text text-anchor="start" x="551" y="-1453.9" font-family="Times Roman,serif" font-size="14.00">reset_password_sent_at :datetime</text>
<text text-anchor="start" x="551" y="-1436.9" font-family="Times Roman,serif" font-size="14.00">remember_created_at :datetime</text>
<text text-anchor="start" x="551" y="-1419.9" font-family="Times Roman,serif" font-size="14.00">sign_in_count :integer</text>
<text text-anchor="start" x="551" y="-1402.9" font-family="Times Roman,serif" font-size="14.00">current_sign_in_at :datetime</text>
<text text-anchor="start" x="551" y="-1385.9" font-family="Times Roman,serif" font-size="14.00">last_sign_in_at :datetime</text>
<text text-anchor="start" x="551" y="-1368.9" font-family="Times Roman,serif" font-size="14.00">current_sign_in_ip :string</text>
<text text-anchor="start" x="551" y="-1351.9" font-family="Times Roman,serif" font-size="14.00">last_sign_in_ip :string</text>
<text text-anchor="start" x="551" y="-1334.9" font-family="Times Roman,serif" font-size="14.00">confirmation_token :string</text>
<text text-anchor="start" x="551" y="-1317.9" font-family="Times Roman,serif" font-size="14.00">confirmed_at :datetime</text>
<text text-anchor="start" x="551" y="-1300.9" font-family="Times Roman,serif" font-size="14.00">confirmation_sent_at :datetime</text>
<text text-anchor="start" x="551" y="-1283.9" font-family="Times Roman,serif" font-size="14.00">unconfirmed_email :string</text>
<text text-anchor="start" x="551" y="-1266.9" font-family="Times Roman,serif" font-size="14.00">authentication_token :string</text>
<text text-anchor="start" x="551" y="-1249.9" font-family="Times Roman,serif" font-size="14.00">created_at :datetime</text>
<text text-anchor="start" x="551" y="-1232.9" font-family="Times Roman,serif" font-size="14.00">updated_at :datetime</text>
</g>
<!-- Group -->
<g id="node8" class="node"><title>Group</title>
<polyline fill="none" stroke="black" points="442.5,-999 583.5,-999 "/>
<path fill="none" stroke="black" d="M583.5,-999C589.5,-999 595.5,-1005 595.5,-1011"/>
<polyline fill="none" stroke="black" points="595.5,-1011 595.5,-1173 "/>
<path fill="none" stroke="black" d="M595.5,-1173C595.5,-1179 589.5,-1185 583.5,-1185"/>
<polyline fill="none" stroke="black" points="583.5,-1185 442.5,-1185 "/>
<path fill="none" stroke="black" d="M442.5,-1185C436.5,-1185 430.5,-1179 430.5,-1173"/>
<polyline fill="none" stroke="black" points="430.5,-1173 430.5,-1011 "/>
<path fill="none" stroke="black" d="M430.5,-1011C430.5,-1005 436.5,-999 442.5,-999"/>
<text text-anchor="middle" x="513" y="-1168.4" font-family="Times Roman,serif" font-size="14.00">Group</text>
<polyline fill="none" stroke="black" points="430.5,-1160 595.5,-1160 "/>
<text text-anchor="start" x="438.5" y="-1143.4" font-family="Times Roman,serif" font-size="14.00">id :integer</text>
<text text-anchor="start" x="438.5" y="-1126.4" font-family="Times Roman,serif" font-size="14.00">instructor_id :integer</text>
<text text-anchor="start" x="438.5" y="-1109.4" font-family="Times Roman,serif" font-size="14.00">group_name :string</text>
<text text-anchor="start" x="438.5" y="-1092.4" font-family="Times Roman,serif" font-size="14.00">title :string</text>
<text text-anchor="start" x="438.5" y="-1075.4" font-family="Times Roman,serif" font-size="14.00">year :string</text>
<text text-anchor="start" x="438.5" y="-1058.4" font-family="Times Roman,serif" font-size="14.00">subject :string</text>
<text text-anchor="start" x="438.5" y="-1041.4" font-family="Times Roman,serif" font-size="14.00">description :string</text>
<text text-anchor="start" x="438.5" y="-1024.4" font-family="Times Roman,serif" font-size="14.00">created_at :datetime</text>
<text text-anchor="start" x="438.5" y="-1007.4" font-family="Times Roman,serif" font-size="14.00">updated_at :datetime</text>
</g>
<!-- Instructor&#45;&gt;Group -->
<g id="edge4" class="edge"><title>Instructor&#45;&gt;Group</title>
<path fill="none" stroke="#fbd8e7" d="M565.926,-1216.73C562.768,-1209.29 559.672,-1201.99 556.661,-1194.9"/>
<ellipse fill="none" stroke="#fbd8e7" cx="567.564" cy="-1220.59" rx="4.00002" ry="4.00002"/>
<polygon fill="#fbd8e7" stroke="#fbd8e7" points="556.518,-1194.56 556.754,-1183.59 554.564,-1189.95 552.611,-1185.35 552.611,-1185.35 552.611,-1185.35 554.564,-1189.95 548.469,-1187.11 556.518,-1194.56 556.518,-1194.56"/>
</g>
<!-- Quiz -->
<g id="node10" class="node"><title>Quiz</title>
<polyline fill="none" stroke="black" points="603.5,-722.5 744.5,-722.5 "/>
<path fill="none" stroke="black" d="M744.5,-722.5C750.5,-722.5 756.5,-728.5 756.5,-734.5"/>
<polyline fill="none" stroke="black" points="756.5,-734.5 756.5,-947.5 "/>
<path fill="none" stroke="black" d="M756.5,-947.5C756.5,-953.5 750.5,-959.5 744.5,-959.5"/>
<polyline fill="none" stroke="black" points="744.5,-959.5 603.5,-959.5 "/>
<path fill="none" stroke="black" d="M603.5,-959.5C597.5,-959.5 591.5,-953.5 591.5,-947.5"/>
<polyline fill="none" stroke="black" points="591.5,-947.5 591.5,-734.5 "/>
<path fill="none" stroke="black" d="M591.5,-734.5C591.5,-728.5 597.5,-722.5 603.5,-722.5"/>
<text text-anchor="middle" x="674" y="-942.9" font-family="Times Roman,serif" font-size="14.00">Quiz</text>
<polyline fill="none" stroke="black" points="591.5,-934.5 756.5,-934.5 "/>
<text text-anchor="start" x="599.5" y="-917.9" font-family="Times Roman,serif" font-size="14.00">id :integer</text>
<text text-anchor="start" x="599.5" y="-900.9" font-family="Times Roman,serif" font-size="14.00">group_id :integer</text>
<text text-anchor="start" x="599.5" y="-883.9" font-family="Times Roman,serif" font-size="14.00">instructor_id :integer</text>
<text text-anchor="start" x="599.5" y="-866.9" font-family="Times Roman,serif" font-size="14.00">title :string</text>
<text text-anchor="start" x="599.5" y="-849.9" font-family="Times Roman,serif" font-size="14.00">subject :string</text>
<text text-anchor="start" x="599.5" y="-832.9" font-family="Times Roman,serif" font-size="14.00">year :string</text>
<text text-anchor="start" x="599.5" y="-815.9" font-family="Times Roman,serif" font-size="14.00">description :string</text>
<text text-anchor="start" x="599.5" y="-798.9" font-family="Times Roman,serif" font-size="14.00">marks :integer</text>
<text text-anchor="start" x="599.5" y="-781.9" font-family="Times Roman,serif" font-size="14.00">status :boolean</text>
<text text-anchor="start" x="599.5" y="-764.9" font-family="Times Roman,serif" font-size="14.00">created_at :datetime</text>
<text text-anchor="start" x="599.5" y="-747.9" font-family="Times Roman,serif" font-size="14.00">updated_at :datetime</text>
<text text-anchor="start" x="599.5" y="-730.9" font-family="Times Roman,serif" font-size="14.00">refrence_id :integer</text>
</g>
<!-- Instructor&#45;&gt;Quiz -->
<g id="edge6" class="edge"><title>Instructor&#45;&gt;Quiz</title>
<path fill="none" stroke="#3a3863" d="M671.585,-1215.88C672.127,-1131.76 672.711,-1041.04 673.17,-969.918"/>
<ellipse fill="none" stroke="#3a3863" cx="671.558" cy="-1220.12" rx="4" ry="4"/>
<polygon fill="#3a3863" stroke="#3a3863" points="673.172,-969.57 677.736,-959.599 673.204,-964.57 673.236,-959.57 673.236,-959.57 673.236,-959.57 673.204,-964.57 668.736,-959.541 673.172,-969.57 673.172,-969.57"/>
</g>
<!-- Question -->
<g id="node7" class="node"><title>Question</title>
<polyline fill="none" stroke="black" points="596,-362.5 758,-362.5 "/>
<path fill="none" stroke="black" d="M758,-362.5C764,-362.5 770,-368.5 770,-374.5"/>
<polyline fill="none" stroke="black" points="770,-374.5 770,-485.5 "/>
<path fill="none" stroke="black" d="M770,-485.5C770,-491.5 764,-497.5 758,-497.5"/>
<polyline fill="none" stroke="black" points="758,-497.5 596,-497.5 "/>
<path fill="none" stroke="black" d="M596,-497.5C590,-497.5 584,-491.5 584,-485.5"/>
<polyline fill="none" stroke="black" points="584,-485.5 584,-374.5 "/>
<path fill="none" stroke="black" d="M584,-374.5C584,-368.5 590,-362.5 596,-362.5"/>
<text text-anchor="middle" x="677" y="-480.9" font-family="Times Roman,serif" font-size="14.00">Question</text>
<polyline fill="none" stroke="black" points="584,-472.5 770,-472.5 "/>
<text text-anchor="start" x="592" y="-455.9" font-family="Times Roman,serif" font-size="14.00">id :integer</text>
<text text-anchor="start" x="592" y="-438.9" font-family="Times Roman,serif" font-size="14.00">quiz_id :integer</text>
<text text-anchor="start" x="592" y="-421.9" font-family="Times Roman,serif" font-size="14.00">title :string</text>
<text text-anchor="start" x="592" y="-404.9" font-family="Times Roman,serif" font-size="14.00">right_answer_id :integer</text>
<text text-anchor="start" x="592" y="-387.9" font-family="Times Roman,serif" font-size="14.00">created_at :datetime</text>
<text text-anchor="start" x="592" y="-370.9" font-family="Times Roman,serif" font-size="14.00">updated_at :datetime</text>
</g>
<!-- Answer -->
<g id="node11" class="node"><title>Answer</title>
<polyline fill="none" stroke="black" points="304.5,-18 445.5,-18 "/>
<path fill="none" stroke="black" d="M445.5,-18C451.5,-18 457.5,-24 457.5,-30"/>
<polyline fill="none" stroke="black" points="457.5,-30 457.5,-124 "/>
<path fill="none" stroke="black" d="M457.5,-124C457.5,-130 451.5,-136 445.5,-136"/>
<polyline fill="none" stroke="black" points="445.5,-136 304.5,-136 "/>
<path fill="none" stroke="black" d="M304.5,-136C298.5,-136 292.5,-130 292.5,-124"/>
<polyline fill="none" stroke="black" points="292.5,-124 292.5,-30 "/>
<path fill="none" stroke="black" d="M292.5,-30C292.5,-24 298.5,-18 304.5,-18"/>
<text text-anchor="middle" x="375" y="-119.4" font-family="Times Roman,serif" font-size="14.00">Answer</text>
<polyline fill="none" stroke="black" points="292.5,-111 457.5,-111 "/>
<text text-anchor="start" x="300.5" y="-94.4" font-family="Times Roman,serif" font-size="14.00">id :integer</text>
<text text-anchor="start" x="300.5" y="-77.4" font-family="Times Roman,serif" font-size="14.00">question_id :integer</text>
<text text-anchor="start" x="300.5" y="-60.4" font-family="Times Roman,serif" font-size="14.00">title :string</text>
<text text-anchor="start" x="300.5" y="-43.4" font-family="Times Roman,serif" font-size="14.00">created_at :datetime</text>
<text text-anchor="start" x="300.5" y="-26.4" font-family="Times Roman,serif" font-size="14.00">updated_at :datetime</text>
</g>
<!-- Question&#45;&gt;Answer -->
<g id="edge8" class="edge"><title>Question&#45;&gt;Answer</title>
<path fill="none" stroke="#281ce9" d="M658.296,-354.637C642.708,-304.044 616.275,-238.408 575,-192 545.676,-159.03 504.554,-133.139 467.217,-114.341"/>
<ellipse fill="none" stroke="#281ce9" cx="659.455" cy="-358.475" rx="4.00001" ry="4.00001"/>
<polygon fill="#281ce9" stroke="#281ce9" points="466.788,-114.13 459.803,-105.677 462.302,-111.923 457.816,-109.715 457.816,-109.715 457.816,-109.715 462.302,-111.923 455.829,-113.753 466.788,-114.13 466.788,-114.13"/>
</g>
<!-- Group&#45;&gt;Membership -->
<g id="edge10" class="edge"><title>Group&#45;&gt;Membership</title>
<path fill="none" stroke="#9c3a51" d="M465.752,-991.497C454.232,-966.993 442.089,-941.164 431.177,-917.954"/>
<ellipse fill="none" stroke="#9c3a51" cx="467.527" cy="-995.274" rx="4.00002" ry="4.00002"/>
<polygon fill="#9c3a51" stroke="#9c3a51" points="431.156,-917.908 430.974,-906.944 429.029,-913.383 426.902,-908.858 426.902,-908.858 426.902,-908.858 429.029,-913.383 422.829,-910.773 431.156,-917.908 431.156,-917.908"/>
</g>
<!-- Group&#45;&gt;User -->
<g id="edge12" class="edge"><title>Group&#45;&gt;User</title>
<path fill="none" stroke="#6ecfaa" d="M507.848,-988.357C503.566,-914.052 496.467,-811.662 486,-722 484.319,-707.6 482.437,-692.825 480.419,-677.932"/>
<polygon fill="#6ecfaa" stroke="#6ecfaa" points="507.865,-988.667 503.94,-998.907 508.149,-993.659 508.433,-998.651 508.433,-998.651 508.433,-998.651 508.149,-993.659 512.926,-998.396 507.865,-988.667 507.865,-988.667"/>
<polygon fill="#6ecfaa" stroke="#6ecfaa" points="480.361,-677.513 483.459,-666.994 479.681,-672.56 479.001,-667.606 479.001,-667.606 479.001,-667.606 479.681,-672.56 474.543,-668.218 480.361,-677.513 480.361,-677.513"/>
<text text-anchor="middle" x="536.5" y="-836.9" font-family="Times Roman,serif" font-size="14.00">students</text>
</g>
<!-- Group&#45;&gt;Publication -->
<g id="edge16" class="edge"><title>Group&#45;&gt;Publication</title>
<path fill="none" stroke="#26cc5b" d="M603.168,-1065.35C657.498,-1044.87 723.907,-1011.24 765,-960 874.744,-823.149 900.601,-609.103 906.468,-499.613"/>
<ellipse fill="none" stroke="#26cc5b" cx="599.337" cy="-1066.77" rx="4.00001" ry="4.00001"/>
<polygon fill="#26cc5b" stroke="#26cc5b" points="906.482,-499.338 911.47,-489.572 906.728,-494.344 906.975,-489.35 906.975,-489.35 906.975,-489.35 906.728,-494.344 902.481,-489.128 906.482,-499.338 906.482,-499.338"/>
</g>
<!-- Group&#45;&gt;Quiz -->
<g id="edge14" class="edge"><title>Group&#45;&gt;Quiz</title>
<path fill="none" stroke="#52335c" d="M578.165,-990.407C582.855,-983.096 587.616,-975.673 592.383,-968.241"/>
<polygon fill="#52335c" stroke="#52335c" points="578.121,-990.476 568.934,-996.464 575.421,-994.685 572.722,-998.894 572.722,-998.894 572.722,-998.894 575.421,-994.685 576.509,-1001.32 578.121,-990.476 578.121,-990.476"/>
<polygon fill="#52335c" stroke="#52335c" points="592.578,-967.937 601.765,-961.95 595.277,-963.729 597.977,-959.52 597.977,-959.52 597.977,-959.52 595.277,-963.729 594.189,-957.091 592.578,-967.937 592.578,-967.937"/>
</g>
<!-- Student -->
<g id="node9" class="node"><title>Student</title>
<polyline fill="none" stroke="black" points="280,-1224.5 510,-1224.5 "/>
<path fill="none" stroke="black" d="M510,-1224.5C516,-1224.5 522,-1230.5 522,-1236.5"/>
<polyline fill="none" stroke="black" points="522,-1236.5 522,-1687.5 "/>
<path fill="none" stroke="black" d="M522,-1687.5C522,-1693.5 516,-1699.5 510,-1699.5"/>
<polyline fill="none" stroke="black" points="510,-1699.5 280,-1699.5 "/>
<path fill="none" stroke="black" d="M280,-1699.5C274,-1699.5 268,-1693.5 268,-1687.5"/>
<polyline fill="none" stroke="black" points="268,-1687.5 268,-1236.5 "/>
<path fill="none" stroke="black" d="M268,-1236.5C268,-1230.5 274,-1224.5 280,-1224.5"/>
<text text-anchor="middle" x="395" y="-1682.9" font-family="Times Roman,serif" font-size="14.00">Student</text>
<polyline fill="none" stroke="black" points="268,-1674.5 522,-1674.5 "/>
<text text-anchor="start" x="276" y="-1657.9" font-family="Times Roman,serif" font-size="14.00">id :integer</text>
<text text-anchor="start" x="276" y="-1640.9" font-family="Times Roman,serif" font-size="14.00">username :string</text>
<text text-anchor="start" x="276" y="-1623.9" font-family="Times Roman,serif" font-size="14.00">first_name :string</text>
<text text-anchor="start" x="276" y="-1606.9" font-family="Times Roman,serif" font-size="14.00">last_name :string</text>
<text text-anchor="start" x="276" y="-1589.9" font-family="Times Roman,serif" font-size="14.00">type :string</text>
<text text-anchor="start" x="276" y="-1572.9" font-family="Times Roman,serif" font-size="14.00">faculty :string</text>
<text text-anchor="start" x="276" y="-1555.9" font-family="Times Roman,serif" font-size="14.00">university :string</text>
<text text-anchor="start" x="276" y="-1538.9" font-family="Times Roman,serif" font-size="14.00">department :string</text>
<text text-anchor="start" x="276" y="-1521.9" font-family="Times Roman,serif" font-size="14.00">year :string</text>
<text text-anchor="start" x="276" y="-1504.9" font-family="Times Roman,serif" font-size="14.00">email :string</text>
<text text-anchor="start" x="276" y="-1487.9" font-family="Times Roman,serif" font-size="14.00">encrypted_password :string</text>
<text text-anchor="start" x="276" y="-1470.9" font-family="Times Roman,serif" font-size="14.00">reset_password_token :string</text>
<text text-anchor="start" x="276" y="-1453.9" font-family="Times Roman,serif" font-size="14.00">reset_password_sent_at :datetime</text>
<text text-anchor="start" x="276" y="-1436.9" font-family="Times Roman,serif" font-size="14.00">remember_created_at :datetime</text>
<text text-anchor="start" x="276" y="-1419.9" font-family="Times Roman,serif" font-size="14.00">sign_in_count :integer</text>
<text text-anchor="start" x="276" y="-1402.9" font-family="Times Roman,serif" font-size="14.00">current_sign_in_at :datetime</text>
<text text-anchor="start" x="276" y="-1385.9" font-family="Times Roman,serif" font-size="14.00">last_sign_in_at :datetime</text>
<text text-anchor="start" x="276" y="-1368.9" font-family="Times Roman,serif" font-size="14.00">current_sign_in_ip :string</text>
<text text-anchor="start" x="276" y="-1351.9" font-family="Times Roman,serif" font-size="14.00">last_sign_in_ip :string</text>
<text text-anchor="start" x="276" y="-1334.9" font-family="Times Roman,serif" font-size="14.00">confirmation_token :string</text>
<text text-anchor="start" x="276" y="-1317.9" font-family="Times Roman,serif" font-size="14.00">confirmed_at :datetime</text>
<text text-anchor="start" x="276" y="-1300.9" font-family="Times Roman,serif" font-size="14.00">confirmation_sent_at :datetime</text>
<text text-anchor="start" x="276" y="-1283.9" font-family="Times Roman,serif" font-size="14.00">unconfirmed_email :string</text>
<text text-anchor="start" x="276" y="-1266.9" font-family="Times Roman,serif" font-size="14.00">authentication_token :string</text>
<text text-anchor="start" x="276" y="-1249.9" font-family="Times Roman,serif" font-size="14.00">created_at :datetime</text>
<text text-anchor="start" x="276" y="-1232.9" font-family="Times Roman,serif" font-size="14.00">updated_at :datetime</text>
</g>
<!-- Student&#45;&gt;Membership -->
<g id="edge18" class="edge"><title>Student&#45;&gt;Membership</title>
<path fill="none" stroke="#226371" d="M395,-1215.82C395,-1109.85 395,-993.423 395,-918.895"/>
<ellipse fill="none" stroke="#226371" cx="395" cy="-1220.12" rx="4" ry="4"/>
<polygon fill="#226371" stroke="#226371" points="395,-918.662 399.5,-908.662 395,-913.662 395,-908.662 395,-908.662 395,-908.662 395,-913.662 390.5,-908.662 395,-918.662 395,-918.662"/>
</g>
<!-- Student&#45;&gt;StudentsQuiz -->
<g id="edge24" class="edge"><title>Student&#45;&gt;StudentsQuiz</title>
<path fill="none" stroke="#363985" d="M299.934,-1216.35C290.316,-1175.42 284,-1132.95 284,-1092 284,-1092 284,-1092 284,-430 284,-323.886 230.198,-269.202 303,-192 345.023,-147.437 516.447,-168.327 576,-154 618.506,-143.774 664.328,-128.616 703.242,-114.447"/>
<ellipse fill="none" stroke="#363985" cx="300.898" cy="-1220.36" rx="4.00001" ry="4.00001"/>
<polygon fill="#363985" stroke="#363985" points="703.593,-114.318 714.532,-115.094 708.286,-112.594 712.98,-110.87 712.98,-110.87 712.98,-110.87 708.286,-112.594 711.428,-106.646 703.593,-114.318 703.593,-114.318"/>
</g>
<!-- Student&#45;&gt;Group -->
<g id="edge20" class="edge"><title>Student&#45;&gt;Group</title>
<path fill="none" stroke="#90bf31" d="M473.917,-1214.55C476.022,-1207.95 478.089,-1201.47 480.104,-1195.15"/>
<polygon fill="#90bf31" stroke="#90bf31" points="473.854,-1214.75 466.529,-1222.91 472.335,-1219.51 470.816,-1224.27 470.816,-1224.27 470.816,-1224.27 472.335,-1219.51 475.103,-1225.64 473.854,-1214.75 473.854,-1214.75"/>
<polygon fill="#90bf31" stroke="#90bf31" points="480.19,-1194.88 487.516,-1186.72 481.709,-1190.12 483.228,-1185.35 483.228,-1185.35 483.228,-1185.35 481.709,-1190.12 478.941,-1183.98 480.19,-1194.88 480.19,-1194.88"/>
</g>
<!-- Student&#45;&gt;Quiz -->
<g id="edge26" class="edge"><title>Student&#45;&gt;Quiz</title>
<path fill="none" stroke="#130963" d="M529.118,-1228.84C530.733,-1227.2 532.36,-1225.59 534,-1224 559.419,-1199.36 582.95,-1214.46 604,-1186 629.275,-1151.83 647.75,-1052.94 659.352,-969.747"/>
<polygon fill="#130963" stroke="#130963" points="529.039,-1228.92 518.872,-1233.03 525.581,-1232.53 522.123,-1236.14 522.123,-1236.14 522.123,-1236.14 525.581,-1232.53 525.373,-1239.26 529.039,-1228.92 529.039,-1228.92"/>
<polygon fill="#130963" stroke="#130963" points="659.373,-969.592 665.191,-960.297 660.053,-964.639 660.733,-959.685 660.733,-959.685 660.733,-959.685 660.053,-964.639 656.275,-959.073 659.373,-969.592 659.373,-969.592"/>
</g>
<!-- Student&#45;&gt;Answer -->
<g id="edge22" class="edge"><title>Student&#45;&gt;Answer</title>
<path fill="none" stroke="#a35253" d="M266.178,-1214.76C253.95,-1174.72 246,-1132.95 246,-1092 246,-1092 246,-1092 246,-430 246,-314.838 218.456,-274.983 270,-172 275.021,-161.968 281.588,-152.495 288.991,-143.699"/>
<polygon fill="#a35253" stroke="#a35253" points="266.195,-1214.81 264.907,-1225.7 267.697,-1219.58 269.199,-1224.35 269.199,-1224.35 269.199,-1224.35 267.697,-1219.58 273.492,-1223 266.195,-1214.81 266.195,-1214.81"/>
<polygon fill="#a35253" stroke="#a35253" points="289.056,-143.625 299.059,-139.133 292.375,-139.886 295.693,-136.146 295.693,-136.146 295.693,-136.146 292.375,-139.886 292.328,-133.159 289.056,-143.625 289.056,-143.625"/>
</g>
<!-- Quiz&#45;&gt;User -->
<g id="edge34" class="edge"><title>Quiz&#45;&gt;User</title>
<path fill="none" stroke="#6eb9de" d="M600.95,-713.369C592.204,-698.081 583.401,-682.69 575,-668 573.708,-665.741 572.409,-663.469 571.104,-661.188"/>
<polygon fill="#6eb9de" stroke="#6eb9de" points="601.124,-713.672 602.184,-724.586 603.607,-718.012 606.09,-722.352 606.09,-722.352 606.09,-722.352 603.607,-718.012 609.996,-720.117 601.124,-713.672 601.124,-713.672"/>
<polygon fill="#6eb9de" stroke="#6eb9de" points="571.008,-661.018 569.95,-650.103 568.526,-656.678 566.044,-652.337 566.044,-652.337 566.044,-652.337 568.526,-656.678 562.137,-654.571 571.008,-661.018 571.008,-661.018"/>
<text text-anchor="middle" x="623.5" y="-690.9" font-family="Times Roman,serif" font-size="14.00">students</text>
</g>
<!-- Quiz&#45;&gt;Publication -->
<g id="edge28" class="edge"><title>Quiz&#45;&gt;Publication</title>
<path fill="none" stroke="#76588e" d="M762.333,-765.326C780.521,-746.655 798.283,-725.733 812,-704 852.436,-639.933 878.483,-556.644 893.098,-498.79"/>
<ellipse fill="none" stroke="#76588e" cx="759.491" cy="-768.202" rx="4.00002" ry="4.00002"/>
<polygon fill="#76588e" stroke="#76588e" points="893.116,-498.72 899.888,-490.095 894.318,-493.866 895.521,-489.013 895.521,-489.013 895.521,-489.013 894.318,-493.866 891.153,-487.931 893.116,-498.72 893.116,-498.72"/>
</g>
<!-- Quiz&#45;&gt;StudentsQuiz -->
<g id="edge32" class="edge"><title>Quiz&#45;&gt;StudentsQuiz</title>
<path fill="none" stroke="#d61624" d="M760.356,-714.843C767.827,-699.566 774.313,-683.774 779,-668 806.277,-576.197 803.886,-304.276 800.584,-163.553"/>
<ellipse fill="none" stroke="#d61624" cx="758.408" cy="-718.724" rx="4.00002" ry="4.00002"/>
<polygon fill="#d61624" stroke="#d61624" points="800.576,-163.237 804.833,-153.131 800.455,-158.238 800.334,-153.24 800.334,-153.24 800.334,-153.24 800.455,-158.238 795.836,-153.348 800.576,-163.237 800.576,-163.237"/>
</g>
<!-- Quiz&#45;&gt;Question -->
<g id="edge30" class="edge"><title>Quiz&#45;&gt;Question</title>
<path fill="none" stroke="#a3cb17" d="M674.925,-714.209C675.417,-646.833 676.006,-566.16 676.431,-508.006"/>
<ellipse fill="none" stroke="#a3cb17" cx="674.895" cy="-718.398" rx="4" ry="4"/>
<polygon fill="#a3cb17" stroke="#a3cb17" points="676.432,-507.782 681.005,-497.815 676.469,-502.782 676.505,-497.782 676.505,-497.782 676.505,-497.782 676.469,-502.782 672.005,-497.749 676.432,-507.782 676.432,-507.782"/>
</g>
<!-- Answer&#45;&gt;Answer -->
<g id="edge36" class="edge"><title>Answer&#45;&gt;Answer</title>
<path fill="none" stroke="#e65047" d="M465.62,-89.7599C471.466,-86.7787 475,-82.5254 475,-77 475,-71.4746 471.466,-67.2213 465.62,-64.2401"/>
<ellipse fill="none" stroke="#e65047" cx="461.516" cy="-91.2832" rx="4.00001" ry="4.00001"/>
<ellipse fill="#e65047" stroke="#e65047" cx="461.516" cy="-62.7168" rx="4.00001" ry="4.00001"/>
<text text-anchor="middle" x="521" y="-72.9" font-family="Times Roman,serif" font-size="14.00">right_answer</text>
</g>
</g>
</svg>
